<?xml version="1.0" encoding="UTF-8" standalone="no"?>
<!-- Created with Inkscape (http://www.inkscape.org/) -->

<svg
   xmlns:dc="http://purl.org/dc/elements/1.1/"
   xmlns:cc="http://creativecommons.org/ns#"
   xmlns:rdf="http://www.w3.org/1999/02/22-rdf-syntax-ns#"
   xmlns:svg="http://www.w3.org/2000/svg"
   xmlns="http://www.w3.org/2000/svg"
   xmlns:sodipodi="http://sodipodi.sourceforge.net/DTD/sodipodi-0.dtd"
   xmlns:inkscape="http://www.inkscape.org/namespaces/inkscape"
   width="210mm"
   height="297mm"
   viewBox="0 0 210 297"
   version="1.1"
   id="svg8"
   inkscape:version="0.92.4 (5da689c313, 2019-01-14)"
   sodipodi:docname="paradigm.svg">
  <defs
     id="defs2" />
  <sodipodi:namedview
     id="base"
     pagecolor="#ffffff"
     bordercolor="#666666"
     borderopacity="1.0"
     inkscape:pageopacity="0.0"
     inkscape:pageshadow="2"
     inkscape:zoom="1.227118"
     inkscape:cx="254.95634"
     inkscape:cy="800.57636"
     inkscape:document-units="mm"
     inkscape:current-layer="layer1"
     showgrid="false"
     inkscape:window-width="1920"
     inkscape:window-height="986"
     inkscape:window-x="-11"
     inkscape:window-y="-11"
     inkscape:window-maximized="1" />
  <metadata
     id="metadata5">
    <rdf:RDF>
      <cc:Work
         rdf:about="">
        <dc:format>image/svg+xml</dc:format>
        <dc:type
           rdf:resource="http://purl.org/dc/dcmitype/StillImage" />
        <dc:title></dc:title>
      </cc:Work>
    </rdf:RDF>
  </metadata>
  <g
     inkscape:label="Layer 1"
     inkscape:groupmode="layer"
     id="layer1">
    <g
       id="g1363"
       inkscape:export-xdpi="500.01001"
       inkscape:export-ydpi="500.01001">
      <rect
         y="12.641031"
         x="9.6302185"
         height="32.368237"
         width="50.558651"
         id="rect815"
         style="opacity:1;fill:#000000;fill-opacity:1;stroke:none;stroke-width:1;stroke-miterlimit:4;stroke-dasharray:none;stroke-opacity:1" />
      <g
         transform="translate(0.95765495)"
         id="g831">
        <circle
           style="opacity:1;fill:#fefefe;fill-opacity:1;stroke:none;stroke-width:1;stroke-miterlimit:4;stroke-dasharray:none;stroke-opacity:1"
           id="path817"
           cx="33.951889"
           cy="20.115425"
           r="2" />
        <g
           id="g825"
           transform="translate(-0.56796741,2.6458334)">
          <circle
             style="opacity:1;fill:#fefefe;fill-opacity:1;stroke:none;stroke-width:1;stroke-miterlimit:4;stroke-dasharray:none;stroke-opacity:1"
             id="circle819"
             cx="22.276983"
             cy="32.232082"
             r="2" />
          <circle
             r="2"
             cy="32.232082"
             cx="46.76273"
             id="circle821"
             style="opacity:1;fill:#fefefe;fill-opacity:1;stroke:none;stroke-width:1;stroke-miterlimit:4;stroke-dasharray:none;stroke-opacity:1" />
        </g>
      </g>
      <path
         inkscape:connector-curvature="0"
         id="path833"
         d="m 28.117273,40.530732 c 13.063273,0 13.568132,-0.06311 13.568132,-0.06311"
         style="fill:#fcfcfc;fill-opacity:1;stroke:#ffffff;stroke-width:0.26458332px;stroke-linecap:butt;stroke-linejoin:miter;stroke-opacity:1" />
      <rect
         style="opacity:1;fill:#000000;fill-opacity:1;stroke:#ffffff;stroke-width:0.5;stroke-miterlimit:4;stroke-dasharray:none;stroke-opacity:1"
         id="rect835"
         width="50.558651"
         height="32.368237"
         x="50.776371"
         y="34.665581" />
      <circle
         style="opacity:1;fill:#fefefe;fill-opacity:1;stroke:none;stroke-width:1;stroke-miterlimit:4;stroke-dasharray:none;stroke-opacity:1"
         id="circle837"
         cx="76.055695"
         cy="43.727478"
         r="2" />
      <g
         id="g843"
         transform="translate(41.53584,24.670384)">
        <circle
           style="opacity:1;fill:#fefefe;fill-opacity:1;stroke:none;stroke-width:1;stroke-miterlimit:4;stroke-dasharray:none;stroke-opacity:1"
           id="circle839"
           cx="22.276983"
           cy="32.232082"
           r="2" />
        <circle
           r="2"
           cy="32.232082"
           cx="46.76273"
           id="circle841"
           style="opacity:1;fill:#fefefe;fill-opacity:1;stroke:none;stroke-width:1;stroke-miterlimit:4;stroke-dasharray:none;stroke-opacity:1" />
      </g>
      <path
         style="fill:#fcfcfc;fill-opacity:1;stroke:#ffffff;stroke-width:0.26458332px;stroke-linecap:butt;stroke-linejoin:miter;stroke-opacity:1"
         d="m 69.263425,62.555283 c 13.063273,0 13.568132,-0.06311 13.568132,-0.06311"
         id="path847"
         inkscape:connector-curvature="0" />
      <g
         id="g877">
        <g
           id="g859">
          <path
             inkscape:connector-curvature="0"
             id="path853"
             d="m 75.602898,46.967706 v 2.524305 h -1.262152 l 1.388369,2.398088"
             style="fill:none;stroke:#ffffff;stroke-width:0.26458332px;stroke-linecap:butt;stroke-linejoin:miter;stroke-opacity:1" />
          <path
             style="fill:none;stroke:#ffffff;stroke-width:0.26458332px;stroke-linecap:butt;stroke-linejoin:miter;stroke-opacity:1"
             d="m 76.468667,46.967706 v 2.524305 h 1.262152 l -1.388369,2.398088"
             id="path855"
             inkscape:connector-curvature="0" />
        </g>
        <path
           style="fill:none;stroke:#fcfcfc;stroke-width:0.26458332px;stroke-linecap:butt;stroke-linejoin:miter;stroke-opacity:1"
           d="m 75.420605,51.342726 0.676072,1.274559 0.587404,-1.318893 v 0 0 0"
           id="path865"
           inkscape:connector-curvature="0" />
        <path
           style="fill:none;stroke:#fefefe;stroke-width:0.26458332px;stroke-linecap:butt;stroke-linejoin:miter;stroke-opacity:1"
           d="m 75.547,47.111708 h 0.865767"
           id="path867"
           inkscape:connector-curvature="0" />
        <path
           style="opacity:1;fill:#fcfcfc;fill-opacity:1;stroke:#fefefe;stroke-width:1.88976383;stroke-miterlimit:4;stroke-dasharray:none;stroke-opacity:1"
           d="m 287.11023,196.81388 c -0.25193,-0.47715 -0.46,-0.89743 -0.46238,-0.93396 -0.004,-0.0564 -0.57887,-1.09368 -1.04566,-1.88575 -0.3458,-0.58678 -3.68509,-6.34366 -3.69743,-6.37433 -0.008,-0.0191 0.9678,-0.0347 2.16775,-0.0347 h 2.18171 v -4.50306 -4.50307 h 1.13101 1.131 v 4.50269 4.50269 l 2.17502,0.0109 2.17503,0.0108 -2.38447,4.11837 c -1.31146,2.26511 -2.38447,4.13597 -2.38447,4.15748 0,0.0215 0.0152,0.0391 0.0339,0.0391 0.0186,0 0.0662,0.0236 0.10572,0.0525 0.0659,0.0482 0.0453,0.1115 -0.24802,0.76448 -0.17592,0.39157 -0.34253,0.76402 -0.37024,0.82766 -0.0488,0.11218 -0.0644,0.0892 -0.50845,-0.75184 z"
           id="path869"
           inkscape:connector-curvature="0"
           transform="scale(0.26458333)" />
      </g>
      <rect
         y="59.1371"
         x="90.409592"
         height="32.368237"
         width="50.558651"
         id="rect879"
         style="opacity:1;fill:#000000;fill-opacity:1;stroke:#ffffff;stroke-width:0.5;stroke-miterlimit:4;stroke-dasharray:none;stroke-opacity:1" />
      <circle
         r="2"
         cy="69.786499"
         cx="127.85973"
         id="circle881"
         style="opacity:1;fill:#fefefe;fill-opacity:1;stroke:none;stroke-width:1;stroke-miterlimit:4;stroke-dasharray:none;stroke-opacity:1" />
      <g
         transform="translate(81.169064,49.141905)"
         id="g887">
        <circle
           r="2"
           cy="32.232082"
           cx="22.276983"
           id="circle883"
           style="opacity:1;fill:#fefefe;fill-opacity:1;stroke:none;stroke-width:1;stroke-miterlimit:4;stroke-dasharray:none;stroke-opacity:1" />
        <circle
           style="opacity:1;fill:#fefefe;fill-opacity:1;stroke:none;stroke-width:1;stroke-miterlimit:4;stroke-dasharray:none;stroke-opacity:1"
           id="circle885"
           cx="46.76273"
           cy="32.232082"
           r="2" />
      </g>
      <path
         inkscape:connector-curvature="0"
         id="path889"
         d="m 108.89665,87.026804 c 13.06327,0 13.56813,-0.06311 13.56813,-0.06311"
         style="fill:#fcfcfc;fill-opacity:1;stroke:#ffffff;stroke-width:0.26458332px;stroke-linecap:butt;stroke-linejoin:miter;stroke-opacity:1" />
      <g
         transform="translate(51.804065,26.059022)"
         id="g903">
        <g
           id="g895">
          <path
             style="fill:none;stroke:#ffffff;stroke-width:0.26458332px;stroke-linecap:butt;stroke-linejoin:miter;stroke-opacity:1"
             d="m 75.602898,46.967706 v 2.524305 h -1.262152 l 1.388369,2.398088"
             id="path891"
             inkscape:connector-curvature="0" />
          <path
             inkscape:connector-curvature="0"
             id="path893"
             d="m 76.468667,46.967706 v 2.524305 h 1.262152 l -1.388369,2.398088"
             style="fill:none;stroke:#ffffff;stroke-width:0.26458332px;stroke-linecap:butt;stroke-linejoin:miter;stroke-opacity:1" />
        </g>
        <path
           inkscape:connector-curvature="0"
           id="path897"
           d="m 75.420605,51.342726 0.676072,1.274559 0.587404,-1.318893 v 0 0 0"
           style="fill:none;stroke:#fcfcfc;stroke-width:0.26458332px;stroke-linecap:butt;stroke-linejoin:miter;stroke-opacity:1" />
        <path
           inkscape:connector-curvature="0"
           id="path899"
           d="m 75.547,47.111708 h 0.865767"
           style="fill:none;stroke:#fefefe;stroke-width:0.26458332px;stroke-linecap:butt;stroke-linejoin:miter;stroke-opacity:1" />
        <path
           transform="scale(0.26458333)"
           inkscape:connector-curvature="0"
           id="path901"
           d="m 287.11023,196.81388 c -0.25193,-0.47715 -0.46,-0.89743 -0.46238,-0.93396 -0.004,-0.0564 -0.57887,-1.09368 -1.04566,-1.88575 -0.3458,-0.58678 -3.68509,-6.34366 -3.69743,-6.37433 -0.008,-0.0191 0.9678,-0.0347 2.16775,-0.0347 h 2.18171 v -4.50306 -4.50307 h 1.13101 1.131 v 4.50269 4.50269 l 2.17502,0.0109 2.17503,0.0108 -2.38447,4.11837 c -1.31146,2.26511 -2.38447,4.13597 -2.38447,4.15748 0,0.0215 0.0152,0.0391 0.0339,0.0391 0.0186,0 0.0662,0.0236 0.10572,0.0525 0.0659,0.0482 0.0453,0.1115 -0.24802,0.76448 -0.17592,0.39157 -0.34253,0.76402 -0.37024,0.82766 -0.0488,0.11218 -0.0644,0.0892 -0.50845,-0.75184 z"
           style="opacity:1;fill:#fcfcfc;fill-opacity:1;stroke:#fefefe;stroke-width:1.88976383;stroke-miterlimit:4;stroke-dasharray:none;stroke-opacity:1" />
      </g>
      <rect
         style="opacity:1;fill:#000000;fill-opacity:1;stroke:#ffffff;stroke-width:0.5;stroke-miterlimit:4;stroke-dasharray:none;stroke-opacity:1"
         id="rect905"
         width="50.558651"
         height="32.368237"
         x="129.42216"
         y="84.938599" />
      <circle
         style="opacity:1;fill:#fefefe;fill-opacity:1;stroke:none;stroke-width:1;stroke-miterlimit:4;stroke-dasharray:none;stroke-opacity:1"
         id="circle907"
         cx="166.8723"
         cy="95.587997"
         r="2" />
      <g
         id="g913"
         transform="translate(120.18163,74.9434)">
        <circle
           style="opacity:1;fill:#fefefe;fill-opacity:1;stroke:none;stroke-width:1;stroke-miterlimit:4;stroke-dasharray:none;stroke-opacity:1"
           id="circle909"
           cx="22.276983"
           cy="32.232082"
           r="2" />
        <circle
           r="2"
           cy="32.232082"
           cx="46.76273"
           id="circle911"
           style="opacity:1;fill:#fefefe;fill-opacity:1;stroke:none;stroke-width:1;stroke-miterlimit:4;stroke-dasharray:none;stroke-opacity:1" />
      </g>
      <path
         style="fill:#fcfcfc;fill-opacity:1;stroke:#ffffff;stroke-width:0.26458332px;stroke-linecap:butt;stroke-linejoin:miter;stroke-opacity:1"
         d="m 158.90367,111.055 c 13.06327,0 13.56813,-0.0631 13.56813,-0.0631"
         id="path915"
         inkscape:connector-curvature="0" />
      <g
         id="g929"
         transform="translate(90.816635,51.860517)">
        <g
           id="g921">
          <path
             inkscape:connector-curvature="0"
             id="path917"
             d="m 75.602898,46.967706 v 2.524305 h -1.262152 l 1.388369,2.398088"
             style="fill:none;stroke:#ffffff;stroke-width:0.26458332px;stroke-linecap:butt;stroke-linejoin:miter;stroke-opacity:1" />
          <path
             style="fill:none;stroke:#ffffff;stroke-width:0.26458332px;stroke-linecap:butt;stroke-linejoin:miter;stroke-opacity:1"
             d="m 76.468667,46.967706 v 2.524305 h 1.262152 l -1.388369,2.398088"
             id="path919"
             inkscape:connector-curvature="0" />
        </g>
        <path
           style="fill:none;stroke:#fcfcfc;stroke-width:0.26458332px;stroke-linecap:butt;stroke-linejoin:miter;stroke-opacity:1"
           d="m 75.420605,51.342726 0.676072,1.274559 0.587404,-1.318893 v 0 0 0"
           id="path923"
           inkscape:connector-curvature="0" />
        <path
           style="fill:none;stroke:#fefefe;stroke-width:0.26458332px;stroke-linecap:butt;stroke-linejoin:miter;stroke-opacity:1"
           d="m 75.547,47.111708 h 0.865767"
           id="path925"
           inkscape:connector-curvature="0" />
        <path
           style="opacity:1;fill:#fcfcfc;fill-opacity:1;stroke:#fefefe;stroke-width:1.88976383;stroke-miterlimit:4;stroke-dasharray:none;stroke-opacity:1"
           d="m 287.11023,196.81388 c -0.25193,-0.47715 -0.46,-0.89743 -0.46238,-0.93396 -0.004,-0.0564 -0.57887,-1.09368 -1.04566,-1.88575 -0.3458,-0.58678 -3.68509,-6.34366 -3.69743,-6.37433 -0.008,-0.0191 0.9678,-0.0347 2.16775,-0.0347 h 2.18171 v -4.50306 -4.50307 h 1.13101 1.131 v 4.50269 4.50269 l 2.17502,0.0109 2.17503,0.0108 -2.38447,4.11837 c -1.31146,2.26511 -2.38447,4.13597 -2.38447,4.15748 0,0.0215 0.0152,0.0391 0.0339,0.0391 0.0186,0 0.0662,0.0236 0.10572,0.0525 0.0659,0.0482 0.0453,0.1115 -0.24802,0.76448 -0.17592,0.39157 -0.34253,0.76402 -0.37024,0.82766 -0.0488,0.11218 -0.0644,0.0892 -0.50845,-0.75184 z"
           id="path927"
           inkscape:connector-curvature="0"
           transform="scale(0.26458333)" />
      </g>
      <g
         style="stroke:#ffffff;stroke-width:10.58776569;stroke-opacity:1"
         transform="matrix(0.02498954,0,0,0.02498953,30.839204,40.434849)"
         id="g1065">
        <g
           style="stroke:#ffffff;stroke-width:10.58776569;stroke-opacity:1"
           id="g1002">
	<g
   style="stroke:#ffffff;stroke-width:10.58776569;stroke-opacity:1"
   id="g1000">
		<g
   style="stroke:#ffffff;stroke-width:10.58776569;stroke-opacity:1"
   id="g998">
			<path
   style="stroke:#ffffff;stroke-width:10.58776569;stroke-opacity:1"
   inkscape:connector-curvature="0"
   d="m 54.144,66.206 c 1.664,1.673 3.849,2.5 6.033,2.5 2.185,0 4.369,-0.828 6.033,-2.5 3.337,-3.328 3.337,-8.738 0,-12.066 L 42.069,30.007 c -3.337,-3.337 -8.738,-3.337 -12.066,0 -3.336,3.328 -3.336,8.738 0,12.066 z"
   id="path986" />

			<path
   style="stroke:#ffffff;stroke-width:10.58776569;stroke-opacity:1"
   inkscape:connector-curvature="0"
   d="m 144.649,68.714 c 2.185,0 4.369,-0.836 6.033,-2.5 l 24.132,-24.141 c 3.336,-3.337 3.336,-8.738 0,-12.066 -3.328,-3.337 -8.73,-3.337 -12.066,0 l -24.132,24.141 c -3.337,3.328 -3.337,8.738 0,12.066 1.663,1.664 3.848,2.5 6.033,2.5 z"
   id="path988" />

			<path
   style="stroke:#ffffff;stroke-width:10.58776569;stroke-opacity:1"
   inkscape:connector-curvature="0"
   d="m 102.409,51.213 c 4.71,0 8.533,-3.823 8.533,-8.533 V 8.546 c 0,-4.71 -3.823,-8.533 -8.533,-8.533 -4.71,0 -8.533,3.823 -8.533,8.533 v 34.133 c -0.001,4.711 3.822,8.534 8.533,8.534 z"
   id="path990" />

			<path
   style="stroke:#ffffff;stroke-width:10.58776569;stroke-opacity:1"
   inkscape:connector-curvature="0"
   d="m 51.209,102.413 c 0,-4.71 -3.823,-8.533 -8.533,-8.533 H 8.533 C 3.823,93.88 0,97.703 0,102.413 c 0,4.71 3.823,8.533 8.533,8.533 h 34.142 c 4.711,0 8.534,-3.823 8.534,-8.533 z"
   id="path992" />

			<path
   style="stroke:#ffffff;stroke-width:10.58776569;stroke-opacity:1"
   inkscape:connector-curvature="0"
   d="m 54.135,138.62 -24.14,24.14 c -3.337,3.337 -3.337,8.738 0,12.066 1.664,1.672 3.849,2.5 6.033,2.5 2.185,0 4.369,-0.828 6.033,-2.5 l 24.141,-24.141 c 3.328,-3.328 3.328,-8.73 0,-12.066 -3.337,-3.336 -8.738,-3.336 -12.067,0.001 z"
   id="path994" />

			<path
   style="stroke:#ffffff;stroke-width:10.58776569;stroke-opacity:1"
   inkscape:connector-curvature="0"
   d="m 511.411,397.896 c -9.301,-23.168 -11.392,-40.09 -13.423,-56.448 -2.739,-22.059 -5.564,-44.877 -25.805,-79.94 l -55.467,-96.077 c -8.934,-15.462 -31.147,-21.436 -46.635,-12.493 -5.18,2.995 -9.498,7.484 -12.467,12.851 -5.743,-8.269 -14.123,-14.174 -23.953,-16.811 -11.008,-2.953 -22.502,-1.425 -32.375,4.258 -9.387,5.419 -15.932,13.892 -19.115,23.441 -13.346,-11.025 -32.7,-13.244 -48.546,-4.079 -9.225,5.325 -16,13.713 -19.243,23.782 L 140.945,93.103 C 119.339,63.654 98.091,69.645 87.33,75.865 c -9.907,5.717 -16.444,14.822 -18.423,25.651 -1.818,9.958 0.324,20.881 6.161,30.967 l 118.084,191.855 c 2.466,4.011 7.723,5.265 11.733,2.799 4.019,-2.475 5.274,-7.723 2.799,-11.733 L 89.719,123.746 c -3.678,-6.383 -5.111,-13.184 -4.019,-19.174 1.075,-5.897 4.591,-10.709 10.163,-13.926 3.84,-2.219 15.514,-8.977 31.249,12.45 l 91.341,128.469 c 2.637,3.703 7.723,4.693 11.571,2.236 3.831,-2.466 5.052,-7.509 2.773,-11.452 -3.422,-5.922 -4.326,-12.817 -2.56,-19.43 1.766,-6.605 6.007,-12.126 11.921,-15.539 12.228,-7.049 27.93,-2.859 34.978,9.37 l 8.499,14.729 c 0.017,0.017 0.026,0.034 0.034,0.051 2.355,4.087 7.578,5.47 11.657,3.123 4.079,-2.355 5.478,-7.569 3.123,-11.656 -7.057,-12.228 -2.859,-27.913 9.37,-34.97 5.914,-3.422 12.851,-4.326 19.422,-2.56 6.613,1.775 12.126,6.007 15.539,11.93 l 12.774,22.118 c 0.009,0.017 0.017,0.034 0.026,0.051 2.364,4.079 7.578,5.47 11.665,3.123 4.079,-2.355 5.478,-7.569 3.123,-11.657 -2.159,-3.729 -2.697,-8.448 -1.468,-12.937 1.229,-4.471 4.036,-8.252 7.714,-10.377 7.475,-4.318 19.021,-1.212 23.322,6.246 l 55.467,96.077 c 18.517,32.06 21.009,52.198 23.646,73.506 1.963,15.804 3.977,32.094 11.87,53.777 l -165.086,95.317 c -28.757,-30.967 -72.713,-63.462 -130.79,-96.666 -6.281,-3.593 -12.51,-7.066 -18.628,-10.402 -15.684,-8.55 -26.761,-25.549 -26.957,-41.327 -0.085,-7.168 2.167,-17.075 13.397,-23.552 4.087,-2.364 5.487,-7.586 3.132,-11.665 -2.364,-4.079 -7.595,-5.478 -11.665,-3.123 -14.336,8.286 -22.127,21.973 -21.922,38.545 0.256,22.008 14.669,44.553 35.849,56.115 6.016,3.277 12.143,6.69 18.321,10.223 59.699,34.133 103.825,67.217 131.149,98.321 1.664,1.894 4.019,2.901 6.409,2.901 1.459,0 2.935,-0.375 4.267,-1.143 l 177.365,-102.4 c 3.677,-2.124 5.23,-6.629 3.651,-10.572 z"
   id="path996" />

		</g>

	</g>

</g>
        <g
           style="stroke:#ffffff;stroke-width:10.58776569;stroke-opacity:1"
           id="g1004">
</g>
        <g
           style="stroke:#ffffff;stroke-width:10.58776569;stroke-opacity:1"
           id="g1006">
</g>
        <g
           style="stroke:#ffffff;stroke-width:10.58776569;stroke-opacity:1"
           id="g1008">
</g>
        <g
           style="stroke:#ffffff;stroke-width:10.58776569;stroke-opacity:1"
           id="g1010">
</g>
        <g
           style="stroke:#ffffff;stroke-width:10.58776569;stroke-opacity:1"
           id="g1012">
</g>
        <g
           style="stroke:#ffffff;stroke-width:10.58776569;stroke-opacity:1"
           id="g1014">
</g>
        <g
           style="stroke:#ffffff;stroke-width:10.58776569;stroke-opacity:1"
           id="g1016">
</g>
        <g
           style="stroke:#ffffff;stroke-width:10.58776569;stroke-opacity:1"
           id="g1018">
</g>
        <g
           style="stroke:#ffffff;stroke-width:10.58776569;stroke-opacity:1"
           id="g1020">
</g>
        <g
           style="stroke:#ffffff;stroke-width:10.58776569;stroke-opacity:1"
           id="g1022">
</g>
        <g
           style="stroke:#ffffff;stroke-width:10.58776569;stroke-opacity:1"
           id="g1024">
</g>
        <g
           style="stroke:#ffffff;stroke-width:10.58776569;stroke-opacity:1"
           id="g1026">
</g>
        <g
           style="stroke:#ffffff;stroke-width:10.58776569;stroke-opacity:1"
           id="g1028">
</g>
        <g
           style="stroke:#ffffff;stroke-width:10.58776569;stroke-opacity:1"
           id="g1030">
</g>
        <g
           style="stroke:#ffffff;stroke-width:10.58776569;stroke-opacity:1"
           id="g1032">
</g>
      </g>
      <g
         id="g1115"
         transform="matrix(0.02498954,0,0,0.02498953,73.530699,62.858665)"
         style="stroke:#ffffff;stroke-width:10.58776569;stroke-opacity:1">
        <g
           id="g1083"
           style="stroke:#ffffff;stroke-width:10.58776569;stroke-opacity:1">
	<g
   id="g1081"
   style="stroke:#ffffff;stroke-width:10.58776569;stroke-opacity:1">
		<g
   id="g1079"
   style="stroke:#ffffff;stroke-width:10.58776569;stroke-opacity:1">
			<path
   id="path1067"
   d="m 54.144,66.206 c 1.664,1.673 3.849,2.5 6.033,2.5 2.185,0 4.369,-0.828 6.033,-2.5 3.337,-3.328 3.337,-8.738 0,-12.066 L 42.069,30.007 c -3.337,-3.337 -8.738,-3.337 -12.066,0 -3.336,3.328 -3.336,8.738 0,12.066 z"
   inkscape:connector-curvature="0"
   style="stroke:#ffffff;stroke-width:10.58776569;stroke-opacity:1" />

			<path
   id="path1069"
   d="m 144.649,68.714 c 2.185,0 4.369,-0.836 6.033,-2.5 l 24.132,-24.141 c 3.336,-3.337 3.336,-8.738 0,-12.066 -3.328,-3.337 -8.73,-3.337 -12.066,0 l -24.132,24.141 c -3.337,3.328 -3.337,8.738 0,12.066 1.663,1.664 3.848,2.5 6.033,2.5 z"
   inkscape:connector-curvature="0"
   style="stroke:#ffffff;stroke-width:10.58776569;stroke-opacity:1" />

			<path
   id="path1071"
   d="m 102.409,51.213 c 4.71,0 8.533,-3.823 8.533,-8.533 V 8.546 c 0,-4.71 -3.823,-8.533 -8.533,-8.533 -4.71,0 -8.533,3.823 -8.533,8.533 v 34.133 c -0.001,4.711 3.822,8.534 8.533,8.534 z"
   inkscape:connector-curvature="0"
   style="stroke:#ffffff;stroke-width:10.58776569;stroke-opacity:1" />

			<path
   id="path1073"
   d="m 51.209,102.413 c 0,-4.71 -3.823,-8.533 -8.533,-8.533 H 8.533 C 3.823,93.88 0,97.703 0,102.413 c 0,4.71 3.823,8.533 8.533,8.533 h 34.142 c 4.711,0 8.534,-3.823 8.534,-8.533 z"
   inkscape:connector-curvature="0"
   style="stroke:#ffffff;stroke-width:10.58776569;stroke-opacity:1" />

			<path
   id="path1075"
   d="m 54.135,138.62 -24.14,24.14 c -3.337,3.337 -3.337,8.738 0,12.066 1.664,1.672 3.849,2.5 6.033,2.5 2.185,0 4.369,-0.828 6.033,-2.5 l 24.141,-24.141 c 3.328,-3.328 3.328,-8.73 0,-12.066 -3.337,-3.336 -8.738,-3.336 -12.067,0.001 z"
   inkscape:connector-curvature="0"
   style="stroke:#ffffff;stroke-width:10.58776569;stroke-opacity:1" />

			<path
   id="path1077"
   d="m 511.411,397.896 c -9.301,-23.168 -11.392,-40.09 -13.423,-56.448 -2.739,-22.059 -5.564,-44.877 -25.805,-79.94 l -55.467,-96.077 c -8.934,-15.462 -31.147,-21.436 -46.635,-12.493 -5.18,2.995 -9.498,7.484 -12.467,12.851 -5.743,-8.269 -14.123,-14.174 -23.953,-16.811 -11.008,-2.953 -22.502,-1.425 -32.375,4.258 -9.387,5.419 -15.932,13.892 -19.115,23.441 -13.346,-11.025 -32.7,-13.244 -48.546,-4.079 -9.225,5.325 -16,13.713 -19.243,23.782 L 140.945,93.103 C 119.339,63.654 98.091,69.645 87.33,75.865 c -9.907,5.717 -16.444,14.822 -18.423,25.651 -1.818,9.958 0.324,20.881 6.161,30.967 l 118.084,191.855 c 2.466,4.011 7.723,5.265 11.733,2.799 4.019,-2.475 5.274,-7.723 2.799,-11.733 L 89.719,123.746 c -3.678,-6.383 -5.111,-13.184 -4.019,-19.174 1.075,-5.897 4.591,-10.709 10.163,-13.926 3.84,-2.219 15.514,-8.977 31.249,12.45 l 91.341,128.469 c 2.637,3.703 7.723,4.693 11.571,2.236 3.831,-2.466 5.052,-7.509 2.773,-11.452 -3.422,-5.922 -4.326,-12.817 -2.56,-19.43 1.766,-6.605 6.007,-12.126 11.921,-15.539 12.228,-7.049 27.93,-2.859 34.978,9.37 l 8.499,14.729 c 0.017,0.017 0.026,0.034 0.034,0.051 2.355,4.087 7.578,5.47 11.657,3.123 4.079,-2.355 5.478,-7.569 3.123,-11.656 -7.057,-12.228 -2.859,-27.913 9.37,-34.97 5.914,-3.422 12.851,-4.326 19.422,-2.56 6.613,1.775 12.126,6.007 15.539,11.93 l 12.774,22.118 c 0.009,0.017 0.017,0.034 0.026,0.051 2.364,4.079 7.578,5.47 11.665,3.123 4.079,-2.355 5.478,-7.569 3.123,-11.657 -2.159,-3.729 -2.697,-8.448 -1.468,-12.937 1.229,-4.471 4.036,-8.252 7.714,-10.377 7.475,-4.318 19.021,-1.212 23.322,6.246 l 55.467,96.077 c 18.517,32.06 21.009,52.198 23.646,73.506 1.963,15.804 3.977,32.094 11.87,53.777 l -165.086,95.317 c -28.757,-30.967 -72.713,-63.462 -130.79,-96.666 -6.281,-3.593 -12.51,-7.066 -18.628,-10.402 -15.684,-8.55 -26.761,-25.549 -26.957,-41.327 -0.085,-7.168 2.167,-17.075 13.397,-23.552 4.087,-2.364 5.487,-7.586 3.132,-11.665 -2.364,-4.079 -7.595,-5.478 -11.665,-3.123 -14.336,8.286 -22.127,21.973 -21.922,38.545 0.256,22.008 14.669,44.553 35.849,56.115 6.016,3.277 12.143,6.69 18.321,10.223 59.699,34.133 103.825,67.217 131.149,98.321 1.664,1.894 4.019,2.901 6.409,2.901 1.459,0 2.935,-0.375 4.267,-1.143 l 177.365,-102.4 c 3.677,-2.124 5.23,-6.629 3.651,-10.572 z"
   inkscape:connector-curvature="0"
   style="stroke:#ffffff;stroke-width:10.58776569;stroke-opacity:1" />

		</g>

	</g>

</g>
        <g
           id="g1085"
           style="stroke:#ffffff;stroke-width:10.58776569;stroke-opacity:1">
</g>
        <g
           id="g1087"
           style="stroke:#ffffff;stroke-width:10.58776569;stroke-opacity:1">
</g>
        <g
           id="g1089"
           style="stroke:#ffffff;stroke-width:10.58776569;stroke-opacity:1">
</g>
        <g
           id="g1091"
           style="stroke:#ffffff;stroke-width:10.58776569;stroke-opacity:1">
</g>
        <g
           id="g1093"
           style="stroke:#ffffff;stroke-width:10.58776569;stroke-opacity:1">
</g>
        <g
           id="g1095"
           style="stroke:#ffffff;stroke-width:10.58776569;stroke-opacity:1">
</g>
        <g
           id="g1097"
           style="stroke:#ffffff;stroke-width:10.58776569;stroke-opacity:1">
</g>
        <g
           id="g1099"
           style="stroke:#ffffff;stroke-width:10.58776569;stroke-opacity:1">
</g>
        <g
           id="g1101"
           style="stroke:#ffffff;stroke-width:10.58776569;stroke-opacity:1">
</g>
        <g
           id="g1103"
           style="stroke:#ffffff;stroke-width:10.58776569;stroke-opacity:1">
</g>
        <g
           id="g1105"
           style="stroke:#ffffff;stroke-width:10.58776569;stroke-opacity:1">
</g>
        <g
           id="g1107"
           style="stroke:#ffffff;stroke-width:10.58776569;stroke-opacity:1">
</g>
        <g
           id="g1109"
           style="stroke:#ffffff;stroke-width:10.58776569;stroke-opacity:1">
</g>
        <g
           id="g1111"
           style="stroke:#ffffff;stroke-width:10.58776569;stroke-opacity:1">
</g>
        <g
           id="g1113"
           style="stroke:#ffffff;stroke-width:10.58776569;stroke-opacity:1">
</g>
      </g>
      <g
         style="stroke:#ffffff;stroke-width:10.58776569;stroke-opacity:1"
         transform="matrix(0.02498954,0,0,0.02498953,113.63483,87.438617)"
         id="g1165">
        <g
           style="stroke:#ffffff;stroke-width:10.58776569;stroke-opacity:1"
           id="g1133">
	<g
   style="stroke:#ffffff;stroke-width:10.58776569;stroke-opacity:1"
   id="g1131">
		<g
   style="stroke:#ffffff;stroke-width:10.58776569;stroke-opacity:1"
   id="g1129">
			<path
   style="stroke:#ffffff;stroke-width:10.58776569;stroke-opacity:1"
   inkscape:connector-curvature="0"
   d="m 54.144,66.206 c 1.664,1.673 3.849,2.5 6.033,2.5 2.185,0 4.369,-0.828 6.033,-2.5 3.337,-3.328 3.337,-8.738 0,-12.066 L 42.069,30.007 c -3.337,-3.337 -8.738,-3.337 -12.066,0 -3.336,3.328 -3.336,8.738 0,12.066 z"
   id="path1117" />

			<path
   style="stroke:#ffffff;stroke-width:10.58776569;stroke-opacity:1"
   inkscape:connector-curvature="0"
   d="m 144.649,68.714 c 2.185,0 4.369,-0.836 6.033,-2.5 l 24.132,-24.141 c 3.336,-3.337 3.336,-8.738 0,-12.066 -3.328,-3.337 -8.73,-3.337 -12.066,0 l -24.132,24.141 c -3.337,3.328 -3.337,8.738 0,12.066 1.663,1.664 3.848,2.5 6.033,2.5 z"
   id="path1119" />

			<path
   style="stroke:#ffffff;stroke-width:10.58776569;stroke-opacity:1"
   inkscape:connector-curvature="0"
   d="m 102.409,51.213 c 4.71,0 8.533,-3.823 8.533,-8.533 V 8.546 c 0,-4.71 -3.823,-8.533 -8.533,-8.533 -4.71,0 -8.533,3.823 -8.533,8.533 v 34.133 c -0.001,4.711 3.822,8.534 8.533,8.534 z"
   id="path1121" />

			<path
   style="stroke:#ffffff;stroke-width:10.58776569;stroke-opacity:1"
   inkscape:connector-curvature="0"
   d="m 51.209,102.413 c 0,-4.71 -3.823,-8.533 -8.533,-8.533 H 8.533 C 3.823,93.88 0,97.703 0,102.413 c 0,4.71 3.823,8.533 8.533,8.533 h 34.142 c 4.711,0 8.534,-3.823 8.534,-8.533 z"
   id="path1123" />

			<path
   style="stroke:#ffffff;stroke-width:10.58776569;stroke-opacity:1"
   inkscape:connector-curvature="0"
   d="m 54.135,138.62 -24.14,24.14 c -3.337,3.337 -3.337,8.738 0,12.066 1.664,1.672 3.849,2.5 6.033,2.5 2.185,0 4.369,-0.828 6.033,-2.5 l 24.141,-24.141 c 3.328,-3.328 3.328,-8.73 0,-12.066 -3.337,-3.336 -8.738,-3.336 -12.067,0.001 z"
   id="path1125" />

			<path
   style="stroke:#ffffff;stroke-width:10.58776569;stroke-opacity:1"
   inkscape:connector-curvature="0"
   d="m 511.411,397.896 c -9.301,-23.168 -11.392,-40.09 -13.423,-56.448 -2.739,-22.059 -5.564,-44.877 -25.805,-79.94 l -55.467,-96.077 c -8.934,-15.462 -31.147,-21.436 -46.635,-12.493 -5.18,2.995 -9.498,7.484 -12.467,12.851 -5.743,-8.269 -14.123,-14.174 -23.953,-16.811 -11.008,-2.953 -22.502,-1.425 -32.375,4.258 -9.387,5.419 -15.932,13.892 -19.115,23.441 -13.346,-11.025 -32.7,-13.244 -48.546,-4.079 -9.225,5.325 -16,13.713 -19.243,23.782 L 140.945,93.103 C 119.339,63.654 98.091,69.645 87.33,75.865 c -9.907,5.717 -16.444,14.822 -18.423,25.651 -1.818,9.958 0.324,20.881 6.161,30.967 l 118.084,191.855 c 2.466,4.011 7.723,5.265 11.733,2.799 4.019,-2.475 5.274,-7.723 2.799,-11.733 L 89.719,123.746 c -3.678,-6.383 -5.111,-13.184 -4.019,-19.174 1.075,-5.897 4.591,-10.709 10.163,-13.926 3.84,-2.219 15.514,-8.977 31.249,12.45 l 91.341,128.469 c 2.637,3.703 7.723,4.693 11.571,2.236 3.831,-2.466 5.052,-7.509 2.773,-11.452 -3.422,-5.922 -4.326,-12.817 -2.56,-19.43 1.766,-6.605 6.007,-12.126 11.921,-15.539 12.228,-7.049 27.93,-2.859 34.978,9.37 l 8.499,14.729 c 0.017,0.017 0.026,0.034 0.034,0.051 2.355,4.087 7.578,5.47 11.657,3.123 4.079,-2.355 5.478,-7.569 3.123,-11.656 -7.057,-12.228 -2.859,-27.913 9.37,-34.97 5.914,-3.422 12.851,-4.326 19.422,-2.56 6.613,1.775 12.126,6.007 15.539,11.93 l 12.774,22.118 c 0.009,0.017 0.017,0.034 0.026,0.051 2.364,4.079 7.578,5.47 11.665,3.123 4.079,-2.355 5.478,-7.569 3.123,-11.657 -2.159,-3.729 -2.697,-8.448 -1.468,-12.937 1.229,-4.471 4.036,-8.252 7.714,-10.377 7.475,-4.318 19.021,-1.212 23.322,6.246 l 55.467,96.077 c 18.517,32.06 21.009,52.198 23.646,73.506 1.963,15.804 3.977,32.094 11.87,53.777 l -165.086,95.317 c -28.757,-30.967 -72.713,-63.462 -130.79,-96.666 -6.281,-3.593 -12.51,-7.066 -18.628,-10.402 -15.684,-8.55 -26.761,-25.549 -26.957,-41.327 -0.085,-7.168 2.167,-17.075 13.397,-23.552 4.087,-2.364 5.487,-7.586 3.132,-11.665 -2.364,-4.079 -7.595,-5.478 -11.665,-3.123 -14.336,8.286 -22.127,21.973 -21.922,38.545 0.256,22.008 14.669,44.553 35.849,56.115 6.016,3.277 12.143,6.69 18.321,10.223 59.699,34.133 103.825,67.217 131.149,98.321 1.664,1.894 4.019,2.901 6.409,2.901 1.459,0 2.935,-0.375 4.267,-1.143 l 177.365,-102.4 c 3.677,-2.124 5.23,-6.629 3.651,-10.572 z"
   id="path1127" />

		</g>

	</g>

</g>
        <g
           style="stroke:#ffffff;stroke-width:10.58776569;stroke-opacity:1"
           id="g1135">
</g>
        <g
           style="stroke:#ffffff;stroke-width:10.58776569;stroke-opacity:1"
           id="g1137">
</g>
        <g
           style="stroke:#ffffff;stroke-width:10.58776569;stroke-opacity:1"
           id="g1139">
</g>
        <g
           style="stroke:#ffffff;stroke-width:10.58776569;stroke-opacity:1"
           id="g1141">
</g>
        <g
           style="stroke:#ffffff;stroke-width:10.58776569;stroke-opacity:1"
           id="g1143">
</g>
        <g
           style="stroke:#ffffff;stroke-width:10.58776569;stroke-opacity:1"
           id="g1145">
</g>
        <g
           style="stroke:#ffffff;stroke-width:10.58776569;stroke-opacity:1"
           id="g1147">
</g>
        <g
           style="stroke:#ffffff;stroke-width:10.58776569;stroke-opacity:1"
           id="g1149">
</g>
        <g
           style="stroke:#ffffff;stroke-width:10.58776569;stroke-opacity:1"
           id="g1151">
</g>
        <g
           style="stroke:#ffffff;stroke-width:10.58776569;stroke-opacity:1"
           id="g1153">
</g>
        <g
           style="stroke:#ffffff;stroke-width:10.58776569;stroke-opacity:1"
           id="g1155">
</g>
        <g
           style="stroke:#ffffff;stroke-width:10.58776569;stroke-opacity:1"
           id="g1157">
</g>
        <g
           style="stroke:#ffffff;stroke-width:10.58776569;stroke-opacity:1"
           id="g1159">
</g>
        <g
           style="stroke:#ffffff;stroke-width:10.58776569;stroke-opacity:1"
           id="g1161">
</g>
        <g
           style="stroke:#ffffff;stroke-width:10.58776569;stroke-opacity:1"
           id="g1163">
</g>
      </g>
      <g
         id="g1215"
         transform="matrix(0.02498954,0,0,0.02498953,163.8728,111.37173)"
         style="stroke:#ffffff;stroke-width:10.58776569;stroke-opacity:1">
        <g
           id="g1183"
           style="stroke:#ffffff;stroke-width:10.58776569;stroke-opacity:1">
	<g
   id="g1181"
   style="stroke:#ffffff;stroke-width:10.58776569;stroke-opacity:1">
		<g
   id="g1179"
   style="stroke:#ffffff;stroke-width:10.58776569;stroke-opacity:1">
			<path
   id="path1167"
   d="m 54.144,66.206 c 1.664,1.673 3.849,2.5 6.033,2.5 2.185,0 4.369,-0.828 6.033,-2.5 3.337,-3.328 3.337,-8.738 0,-12.066 L 42.069,30.007 c -3.337,-3.337 -8.738,-3.337 -12.066,0 -3.336,3.328 -3.336,8.738 0,12.066 z"
   inkscape:connector-curvature="0"
   style="stroke:#ffffff;stroke-width:10.58776569;stroke-opacity:1" />

			<path
   id="path1169"
   d="m 144.649,68.714 c 2.185,0 4.369,-0.836 6.033,-2.5 l 24.132,-24.141 c 3.336,-3.337 3.336,-8.738 0,-12.066 -3.328,-3.337 -8.73,-3.337 -12.066,0 l -24.132,24.141 c -3.337,3.328 -3.337,8.738 0,12.066 1.663,1.664 3.848,2.5 6.033,2.5 z"
   inkscape:connector-curvature="0"
   style="stroke:#ffffff;stroke-width:10.58776569;stroke-opacity:1" />

			<path
   id="path1171"
   d="m 102.409,51.213 c 4.71,0 8.533,-3.823 8.533,-8.533 V 8.546 c 0,-4.71 -3.823,-8.533 -8.533,-8.533 -4.71,0 -8.533,3.823 -8.533,8.533 v 34.133 c -0.001,4.711 3.822,8.534 8.533,8.534 z"
   inkscape:connector-curvature="0"
   style="stroke:#ffffff;stroke-width:10.58776569;stroke-opacity:1" />

			<path
   id="path1173"
   d="m 51.209,102.413 c 0,-4.71 -3.823,-8.533 -8.533,-8.533 H 8.533 C 3.823,93.88 0,97.703 0,102.413 c 0,4.71 3.823,8.533 8.533,8.533 h 34.142 c 4.711,0 8.534,-3.823 8.534,-8.533 z"
   inkscape:connector-curvature="0"
   style="stroke:#ffffff;stroke-width:10.58776569;stroke-opacity:1" />

			<path
   id="path1175"
   d="m 54.135,138.62 -24.14,24.14 c -3.337,3.337 -3.337,8.738 0,12.066 1.664,1.672 3.849,2.5 6.033,2.5 2.185,0 4.369,-0.828 6.033,-2.5 l 24.141,-24.141 c 3.328,-3.328 3.328,-8.73 0,-12.066 -3.337,-3.336 -8.738,-3.336 -12.067,0.001 z"
   inkscape:connector-curvature="0"
   style="stroke:#ffffff;stroke-width:10.58776569;stroke-opacity:1" />

			<path
   id="path1177"
   d="m 511.411,397.896 c -9.301,-23.168 -11.392,-40.09 -13.423,-56.448 -2.739,-22.059 -5.564,-44.877 -25.805,-79.94 l -55.467,-96.077 c -8.934,-15.462 -31.147,-21.436 -46.635,-12.493 -5.18,2.995 -9.498,7.484 -12.467,12.851 -5.743,-8.269 -14.123,-14.174 -23.953,-16.811 -11.008,-2.953 -22.502,-1.425 -32.375,4.258 -9.387,5.419 -15.932,13.892 -19.115,23.441 -13.346,-11.025 -32.7,-13.244 -48.546,-4.079 -9.225,5.325 -16,13.713 -19.243,23.782 L 140.945,93.103 C 119.339,63.654 98.091,69.645 87.33,75.865 c -9.907,5.717 -16.444,14.822 -18.423,25.651 -1.818,9.958 0.324,20.881 6.161,30.967 l 118.084,191.855 c 2.466,4.011 7.723,5.265 11.733,2.799 4.019,-2.475 5.274,-7.723 2.799,-11.733 L 89.719,123.746 c -3.678,-6.383 -5.111,-13.184 -4.019,-19.174 1.075,-5.897 4.591,-10.709 10.163,-13.926 3.84,-2.219 15.514,-8.977 31.249,12.45 l 91.341,128.469 c 2.637,3.703 7.723,4.693 11.571,2.236 3.831,-2.466 5.052,-7.509 2.773,-11.452 -3.422,-5.922 -4.326,-12.817 -2.56,-19.43 1.766,-6.605 6.007,-12.126 11.921,-15.539 12.228,-7.049 27.93,-2.859 34.978,9.37 l 8.499,14.729 c 0.017,0.017 0.026,0.034 0.034,0.051 2.355,4.087 7.578,5.47 11.657,3.123 4.079,-2.355 5.478,-7.569 3.123,-11.656 -7.057,-12.228 -2.859,-27.913 9.37,-34.97 5.914,-3.422 12.851,-4.326 19.422,-2.56 6.613,1.775 12.126,6.007 15.539,11.93 l 12.774,22.118 c 0.009,0.017 0.017,0.034 0.026,0.051 2.364,4.079 7.578,5.47 11.665,3.123 4.079,-2.355 5.478,-7.569 3.123,-11.657 -2.159,-3.729 -2.697,-8.448 -1.468,-12.937 1.229,-4.471 4.036,-8.252 7.714,-10.377 7.475,-4.318 19.021,-1.212 23.322,6.246 l 55.467,96.077 c 18.517,32.06 21.009,52.198 23.646,73.506 1.963,15.804 3.977,32.094 11.87,53.777 l -165.086,95.317 c -28.757,-30.967 -72.713,-63.462 -130.79,-96.666 -6.281,-3.593 -12.51,-7.066 -18.628,-10.402 -15.684,-8.55 -26.761,-25.549 -26.957,-41.327 -0.085,-7.168 2.167,-17.075 13.397,-23.552 4.087,-2.364 5.487,-7.586 3.132,-11.665 -2.364,-4.079 -7.595,-5.478 -11.665,-3.123 -14.336,8.286 -22.127,21.973 -21.922,38.545 0.256,22.008 14.669,44.553 35.849,56.115 6.016,3.277 12.143,6.69 18.321,10.223 59.699,34.133 103.825,67.217 131.149,98.321 1.664,1.894 4.019,2.901 6.409,2.901 1.459,0 2.935,-0.375 4.267,-1.143 l 177.365,-102.4 c 3.677,-2.124 5.23,-6.629 3.651,-10.572 z"
   inkscape:connector-curvature="0"
   style="stroke:#ffffff;stroke-width:10.58776569;stroke-opacity:1" />

		</g>

	</g>

</g>
        <g
           id="g1185"
           style="stroke:#ffffff;stroke-width:10.58776569;stroke-opacity:1">
</g>
        <g
           id="g1187"
           style="stroke:#ffffff;stroke-width:10.58776569;stroke-opacity:1">
</g>
        <g
           id="g1189"
           style="stroke:#ffffff;stroke-width:10.58776569;stroke-opacity:1">
</g>
        <g
           id="g1191"
           style="stroke:#ffffff;stroke-width:10.58776569;stroke-opacity:1">
</g>
        <g
           id="g1193"
           style="stroke:#ffffff;stroke-width:10.58776569;stroke-opacity:1">
</g>
        <g
           id="g1195"
           style="stroke:#ffffff;stroke-width:10.58776569;stroke-opacity:1">
</g>
        <g
           id="g1197"
           style="stroke:#ffffff;stroke-width:10.58776569;stroke-opacity:1">
</g>
        <g
           id="g1199"
           style="stroke:#ffffff;stroke-width:10.58776569;stroke-opacity:1">
</g>
        <g
           id="g1201"
           style="stroke:#ffffff;stroke-width:10.58776569;stroke-opacity:1">
</g>
        <g
           id="g1203"
           style="stroke:#ffffff;stroke-width:10.58776569;stroke-opacity:1">
</g>
        <g
           id="g1205"
           style="stroke:#ffffff;stroke-width:10.58776569;stroke-opacity:1">
</g>
        <g
           id="g1207"
           style="stroke:#ffffff;stroke-width:10.58776569;stroke-opacity:1">
</g>
        <g
           id="g1209"
           style="stroke:#ffffff;stroke-width:10.58776569;stroke-opacity:1">
</g>
        <g
           id="g1211"
           style="stroke:#ffffff;stroke-width:10.58776569;stroke-opacity:1">
</g>
        <g
           id="g1213"
           style="stroke:#ffffff;stroke-width:10.58776569;stroke-opacity:1">
</g>
      </g>
    </g>
    <path
       style="fill:none;stroke:#000000;stroke-width:0.26458332px;stroke-linecap:butt;stroke-linejoin:miter;stroke-opacity:1"
       d="M 6.4684084,57.453278 136.2678,135.5054"
       id="path1365"
       inkscape:connector-curvature="0" />
    <path
       style="fill:none;stroke:#000000;stroke-width:0.26458332px;stroke-linecap:butt;stroke-linejoin:miter;stroke-opacity:1"
       d="m 61.018652,90.226546 v 6.03718"
       id="path1367"
       inkscape:connector-curvature="0" />
    <path
       style="fill:none;stroke:#000000;stroke-width:0.26458332px;stroke-linecap:butt;stroke-linejoin:miter;stroke-opacity:1"
       d="m 103.06331,115.33567 v 7.11525"
       id="path1369"
       inkscape:connector-curvature="0" />
    <path
       style="fill:none;stroke:#000000;stroke-width:0.26458332px;stroke-linecap:butt;stroke-linejoin:miter;stroke-opacity:1"
       d="m 136.2678,135.5054 0.21561,5.60596"
       id="path1371"
       inkscape:connector-curvature="0" />
    <text
       xml:space="preserve"
       style="font-style:normal;font-weight:normal;font-size:19.7555542px;line-height:1.25;font-family:sans-serif;letter-spacing:0px;word-spacing:0px;fill:#000000;fill-opacity:1;stroke:none;stroke-width:0.26458332"
       x="56.275154"
       y="101.43845"
       id="text1375"><tspan
         sodipodi:role="line"
         id="tspan1373"
         x="56.275154"
         y="101.43845"
         style="stroke-width:0.26458332;font-size:5.64444444px">go</tspan></text>
    <text
       xml:space="preserve"
       style="font-style:normal;font-weight:normal;font-size:19.7555542px;line-height:0.25;font-family:sans-serif;letter-spacing:0px;word-spacing:0px;fill:#000000;fill-opacity:1;stroke:none;stroke-width:0.26458332"
       x="104.11437"
       y="127.64536"
       id="text1379"><tspan
         sodipodi:role="line"
         x="104.11437"
         y="127.64536"
         style="font-size:5.64444447px;line-height:0.25;text-align:center;text-anchor:middle;stroke-width:0.26458332"
         id="tspan1385">jump</tspan><tspan
         sodipodi:role="line"
         x="104.11437"
         y="134.87492"
         style="font-size:5.64444447px;line-height:0.25;text-align:center;text-anchor:middle;stroke-width:0.26458332"
         id="tspan1389">0 - 600 ms</tspan></text>
    <text
       xml:space="preserve"
       style="font-style:normal;font-weight:normal;font-size:19.7555542px;line-height:0.25;font-family:sans-serif;letter-spacing:0px;word-spacing:0px;fill:#000000;fill-opacity:1;stroke:none;stroke-width:0.26458332"
       x="136.52434"
       y="146.07047"
       id="text1383"><tspan
         sodipodi:role="line"
         x="136.52434"
         y="146.07047"
         style="font-size:5.64444447px;line-height:0.25;text-align:center;text-anchor:middle;stroke-width:0.26458332"
         id="tspan1391">answer</tspan><tspan
         sodipodi:role="line"
         x="136.52434"
         y="153.30002"
         style="font-size:5.64444447px;line-height:0.25;text-align:center;text-anchor:middle;stroke-width:0.26458332"
         id="tspan1395">latest 680 ms after go</tspan></text>
  </g>
</svg>
